<svg xmlns="http://www.w3.org/2000/svg" width="1386.36" height="411.64" viewBox="0 0 1386.36 411.64"><title>onc-logo</title><path d="M0,205.82C0,89.66,91.22,0,205.82,0S411.64,89.66,411.64,205.82,320.42,411.64,205.82,411.64,0,322,0,205.82Zm295.14,0c0-55.35-38.65-93.2-89.32-93.2s-89.32,37.85-89.32,93.2S155.14,299,205.82,299,295.14,261.17,295.14,205.82Z"/><path d="M807.74,159.22V400H691.24V178.64c0-48.25-28.67-69.91-66-69.91-42.8,0-73.78,22.42-73.78,77.67V400H434.93V11.65H551.44v35C572.45,17.81,612.69,0,664.06,0,742.66,0,807.74,54.16,807.74,159.22Z"/><path d="M1238.8,337.85c0-40.39,33.39-73.78,73.78-73.78s73.78,33.39,73.78,73.78-33.4,73.78-73.78,73.78S1238.8,378.24,1238.8,337.85Z"/><path d="M1219.38,310.67c-35.22,62.13-105.27,101-182.52,101C922.26,411.64,831,322,831,205.82S922.26,0,1036.86,0c77.25,0,147.3,38.84,182.52,101l-104.85,58.25c-15-28.67-43.17-46.6-77.67-46.6-50.67,0-89.32,37.85-89.32,93.2s38.65,93.2,89.32,93.2c34.5,0,62.72-17.93,77.67-46.6Z"/></svg>